<?xml version="1.0" standalone="no"?>
<!DOCTYPE svg PUBLIC "-//W3C//DTD SVG 20010904//EN"
 "http://www.w3.org/TR/2001/REC-SVG-20010904/DTD/svg10.dtd">
<svg version="1.0" xmlns="http://www.w3.org/2000/svg"
 width="200.000000pt" height="200.000000pt" viewBox="0 0 200.000000 200.000000"
 preserveAspectRatio="xMidYMid meet">

<g transform="translate(0.000000,200.000000) scale(0.100000,-0.100000)"
fill="#000000" stroke="none">
<path d="M750 1904 c-127 -25 -246 -73 -339 -137 -103 -71 -217 -210 -270
-332 -85 -192 -81 -451 9 -644 33 -70 103 -172 144 -210 l26 -24 0 86 c0 47
-4 88 -9 92 -16 9 -60 94 -87 169 -35 94 -44 265 -20 371 97 414 557 640 941
461 207 -97 354 -292 388 -518 l6 -38 -53 0 c-88 0 -88 -8 7 -171 61 -105 89
-144 102 -144 14 0 42 39 102 144 95 163 95 171 7 171 -30 0 -54 2 -54 4 0 2
-6 37 -14 78 -60 303 -268 532 -563 619 -67 20 -267 34 -323 23z"/>
<path d="M730 1513 c-27 -10 -67 -38 -101 -72 -76 -76 -89 -118 -89 -282 l0
-127 -36 -27 c-46 -35 -89 -125 -104 -217 -7 -42 -10 -124 -8 -202 6 -155 28
-229 88 -286 62 -61 201 -93 375 -88 l100 3 5 150 c6 169 17 205 74 232 33 15
34 17 38 91 5 67 8 78 32 99 40 34 78 30 126 -13 45 -41 46 -37 25 55 -19 80
-60 157 -96 178 -26 16 -26 17 -32 152 -3 75 -11 153 -18 173 -19 58 -79 128
-138 161 -66 38 -170 46 -241 20z m152 -93 c48 -14 94 -53 118 -101 16 -31 20
-59 20 -141 l0 -103 -190 0 -190 0 0 89 c0 111 15 161 61 207 50 50 114 67
181 49z m16 -605 c16 -14 32 -37 35 -52 6 -31 -12 -81 -35 -101 -14 -11 -14
-20 -2 -75 7 -34 13 -65 14 -69 0 -5 -34 -8 -75 -8 -85 0 -85 0 -65 87 9 37 7
46 -15 79 -35 51 -33 97 4 135 39 38 96 40 139 4z"/>
<path d="M1140 645 l0 -95 -29 0 c-15 0 -40 -9 -55 -21 l-26 -20 0 -188 c0
-183 1 -188 23 -209 23 -22 26 -22 425 -22 389 0 403 1 422 20 19 19 20 33 20
210 0 177 -1 191 -20 210 -19 19 -33 20 -278 20 l-257 0 -95 95 c-52 52 -103
95 -112 95 -16 0 -18 -11 -18 -95z m70 -270 c0 -22 4 -25 27 -23 34 4 47 -30
14 -39 -23 -6 -27 -18 -11 -28 15 -9 12 -35 -5 -42 -9 -3 -22 2 -30 13 -13 18
-14 18 -34 0 -17 -15 -24 -17 -33 -8 -10 10 -10 17 0 32 16 26 15 27 -8 33
-12 3 -20 14 -20 27 0 19 4 21 25 16 22 -6 25 -3 25 19 0 20 5 25 25 25 20 0
25 -5 25 -25z m200 0 c0 -22 3 -25 25 -19 21 5 25 3 25 -16 0 -13 -8 -24 -20
-27 -23 -6 -24 -7 -8 -33 10 -15 10 -22 0 -32 -9 -9 -16 -7 -33 8 -20 18 -21
18 -34 0 -8 -11 -21 -16 -30 -13 -17 7 -20 33 -5 42 16 10 12 22 -11 28 -33 9
-20 43 14 39 23 -2 27 1 27 23 0 20 5 25 25 25 20 0 25 -5 25 -25z m190 0 c0
-22 3 -25 24 -19 18 4 25 1 29 -15 4 -16 -1 -23 -19 -27 -24 -6 -24 -7 -8 -31
13 -21 14 -27 3 -34 -21 -13 -26 -11 -43 12 l-14 21 -11 -21 c-12 -22 -36 -28
-46 -11 -4 6 0 21 9 34 14 23 14 24 -10 30 -36 9 -28 42 9 38 23 -2 27 1 27
23 0 20 5 25 25 25 20 0 25 -5 25 -25z m190 0 c0 -22 3 -25 24 -19 17 4 25 1
30 -12 7 -18 -8 -34 -33 -34 -10 0 -10 -6 4 -26 14 -22 15 -28 4 -35 -21 -13
-27 -11 -40 13 l-11 21 -17 -22 c-11 -14 -23 -20 -34 -15 -21 8 -21 14 -1 42
12 17 12 22 2 22 -23 0 -39 16 -32 33 4 12 13 15 30 11 21 -5 24 -3 24 20 0
21 5 26 25 26 20 0 25 -5 25 -25z"/>
</g>
</svg>
